<svg id="Q8AtBP.tif" xmlns="http://www.w3.org/2000/svg" width="100.701" height="100.664" viewBox="0 0 100.701 100.664">
  <g id="Group_252" data-name="Group 252">
    <path id="Path_734" data-name="Path 734" d="M496.921,418.717a50.332,50.332,0,1,1,50.349-49.289A50.28,50.28,0,0,1,496.921,418.717Z" transform="translate(-446.579 -318.055)"/>
    <path id="Path_735" data-name="Path 735" d="M497.063,417.713a49.177,49.177,0,1,1,49.2-48.485A49.159,49.159,0,0,1,497.063,417.713Z" transform="translate(-446.718 -318.194)" fill="#4998d3"/>
    <path id="Path_736" data-name="Path 736" d="M523.72,366.047a27.065,27.065,0,0,1-4.238,15.37,1.1,1.1,0,0,0,.172,1.644c2.872,2.834,5.7,5.708,8.551,8.567a5.022,5.022,0,0,1-2.477,8.7,4.421,4.421,0,0,1-4.334-1.356c-2.741-2.689-5.444-5.419-8.161-8.133a6.355,6.355,0,0,1-.612-.62c-.5-.656-.959-.7-1.689-.226a26.242,26.242,0,0,1-14.723,4.328A27.314,27.314,0,0,1,469.365,372.5c-2.172-10.969,1.128-20.291,9.737-27.5,4.16-3.481,9.22-5.074,14.55-5.789,13.472-1.808,24.56,8.026,28.029,16.795A28.384,28.384,0,0,1,523.72,366.047Z" transform="translate(-448.95 -320.297)" fill="#fefefe"/>
    <path id="Path_737" data-name="Path 737" d="M496.451,392.4a25.478,25.478,0,1,1,25.475-25.452A25.454,25.454,0,0,1,496.451,392.4Z" transform="translate(-449.2 -320.559)" fill="#4998d3"/>
    <path id="Path_738" data-name="Path 738" d="M533.209,400.667a2.885,2.885,0,0,1-4.332,2.644,5.738,5.738,0,0,1-1.113-.918c-2.628-2.614-5.222-5.264-7.884-7.841-.645-.624-.568-.941.035-1.487,1-.907,1.941-1.887,2.877-2.864.354-.369.58-.464.994-.044,2.8,2.851,5.632,5.672,8.444,8.511A2.76,2.76,0,0,1,533.209,400.667Z" transform="translate(-454.381 -325.746)" fill="#4998d3"/>
    <path id="Path_739" data-name="Path 739" d="M496.734,343.623a23.549,23.549,0,1,1-23.464,23.2A23.469,23.469,0,0,1,496.734,343.623Z" transform="translate(-449.437 -320.793)" fill="#fefefe"/>
    <path id="Path_740" data-name="Path 740" d="M482.569,383.019c-.569-.548-1.04-1.016-1.527-1.467-.275-.255-.143-.438.06-.64,1.805-1.8,3.614-3.6,5.406-5.415.306-.311.513-.285.782.023a11.82,11.82,0,0,0,.943.972,2.09,2.09,0,0,0,3.306-.06q4.535-4.5,9.026-9.053c.446-.454.621-.505,1.064,0,1.393,1.61,2.427,1.609,3.957.084,1.457-1.453,2.9-2.916,4.51-4.53.031.606.027,1.006.078,1.4.079.6.393,1.063,1.04,1.079a1,1,0,0,0,1.074-1.019,23.52,23.52,0,0,0,0-4.151c-.071-.839-.7-1.029-1.381-1.048-1.13-.034-2.261-.037-3.389,0-.672.023-1.352.2-1.394,1.036s.613,1.038,1.29,1.139c.216.032.436.045.855.087-1.614,1.607-3.115,3.1-4.615,4.6-.3.3-.475.01-.612-.167-1.133-1.478-2.587-1.513-4.095.049-2.869,2.972-5.812,5.873-8.693,8.834-.347.356-.507.373-.8.02-.225-.274-.479-.524-.729-.776-1.463-1.469-2.4-1.477-3.848-.032-1.577,1.573-3.189,3.114-4.708,4.741-.685.735-.935.548-1.4-.2a21.35,21.35,0,1,1,35.373,1.531,1.832,1.832,0,0,1-.671.687c-.265-.232-.138-.539-.138-.8-.011-2.938,0-5.875-.009-8.813-.005-2.056-.668-2.7-2.742-2.713-3.017-.015-3.424.384-3.424,3.361q0,6.682,0,13.364a1.649,1.649,0,0,1-1.54,1.835c-.594.091-.417-.363-.419-.629-.015-2-.008-4-.008-6,0-2.1.006-4.2,0-6.3-.007-1.8-.737-2.539-2.51-2.562-.226,0-.452,0-.678,0-2.439,0-3.068.58-3.073,3q-.015,6.777.058,13.554c.007.667-.3.783-.818.735-.477-.044-1.143.282-1.125-.692.041-2.195.016-4.39.012-6.585s-.653-2.77-2.807-2.862c-2.921-.124-3.5.654-3.466,3.483.02,1.517.029,3.035-.014,4.551-.011.364.35.99-.36,1.071a1.383,1.383,0,0,1-1.477-1.189c-.027-1.1,0-2.195-.015-3.292-.011-.612-.07-1.221-.111-1.832a1.225,1.225,0,0,0-.057-.381c-.788-1.942-2.5-1.321-3.934-1.366a1.863,1.863,0,0,0-2.048,1.655C482.684,381.838,482.646,382.345,482.569,383.019Z" transform="translate(-449.69 -321.05)" fill="#4998d3"/>
    <path id="Path_741" data-name="Path 741" d="M504.219,384.323c0-2.192.035-4.385-.019-6.576-.019-.769.333-.816.925-.8s1.049-.038,1.042.821c-.038,4.223-.013,8.446-.021,12.67a1.47,1.47,0,0,1-1.7,1.2c-.4-.131-.213-.494-.214-.745C504.212,388.707,504.219,386.515,504.219,384.323Z" transform="translate(-452.748 -324.361)" fill="#4a99d3"/>
    <path id="Path_742" data-name="Path 742" d="M513.335,387.625c0-4.515.01-9.031-.011-13.546,0-.78.516-.6.92-.578s1.03-.3,1.027.571c-.015,3.9.017,7.81-.022,11.715C515.237,386.872,514.063,387.02,513.335,387.625Z" transform="translate(-453.727 -323.988)" fill="#4a99d3"/>
    <path id="Path_743" data-name="Path 743" d="M496.933,388.933c0,1.03.023,2.061-.013,3.09-.011.3.263.9-.436.805-.543-.071-1.343.179-1.384-.786-.031-.739-.028-1.48-.03-2.22,0-1.385.037-2.77-.014-4.153-.029-.79.454-.692.936-.681.46.009.991-.152.955.661C496.9,386.742,496.933,387.838,496.933,388.933Z" transform="translate(-451.77 -325.221)" fill="#4998d3"/>
    <path id="Path_744" data-name="Path 744" d="M487.793,388.2c0,.387.02.773-.005,1.158-.02.3.167.707-.154.879-.272.146-.51-.2-.744-.343a3.348,3.348,0,0,1-1.021-3.567c.32-.588.99-.178,1.5-.25.421-.061.427.279.427.58Q487.792,387.434,487.793,388.2Z" transform="translate(-450.766 -325.332)" fill="#4a99d3"/>
    <path id="Path_745" data-name="Path 745" d="M492.008,353.981c0,1.8.021,3.508-.011,5.215-.012.639.477.7.855.884a4.919,4.919,0,0,1,3.215,4.824,4.842,4.842,0,0,1-3.143,4.675,2.346,2.346,0,0,0-1.12.85.963.963,0,0,1-1.8-.1,1.611,1.611,0,0,0-.967-.713,5.1,5.1,0,0,1-3.184-4.072,1.514,1.514,0,0,1,.378-1.526c.669-.564,1.563-.093,1.692.924a3.211,3.211,0,0,0,1.254,2.3.813.813,0,0,0,.51.214c.243-.042.155-.312.156-.488.006-1.549-.019-3.1.016-4.646.013-.562-.313-.667-.727-.838a5.153,5.153,0,0,1-2.155-8.093,4.43,4.43,0,0,1,1.323-1.115,5.32,5.32,0,0,0,1.977-1.465.861.861,0,0,1,1.477.134,3.149,3.149,0,0,0,1.415,1.1,5.008,5.008,0,0,1,2.872,4.086c.095.7.062,1.426-.872,1.544-.9.113-1.139-.475-1.235-1.24A2.72,2.72,0,0,0,492.008,353.981Z" transform="translate(-450.779 -321.524)" fill="#fefefe"/>
    <path id="Path_746" data-name="Path 746" d="M492.752,363.586a2.753,2.753,0,0,1,1.936,2.8,2.591,2.591,0,0,1-1.9,2.475c-.012-.161-.032-.314-.033-.468C492.751,366.82,492.752,365.248,492.752,363.586Z" transform="translate(-451.524 -322.93)" fill="#4999d3"/>
    <path id="Path_747" data-name="Path 747" d="M490.085,354.482v5.253a2.77,2.77,0,0,1,0-5.253Z" transform="translate(-451.036 -321.956)" fill="#4a99d3"/>
  </g>
</svg>
