<svg id="cgZctn.tif" xmlns="http://www.w3.org/2000/svg" width="100.066" height="100.039" viewBox="0 0 100.066 100.039">
  <g id="Group_247" data-name="Group 247">
    <path id="Path_719" data-name="Path 719" d="M316.971,414.409a50.019,50.019,0,1,1,50.023-49.147A49.98,49.98,0,0,1,316.971,414.409Z" transform="translate(-266.935 -314.37)"/>
    <path id="Path_720" data-name="Path 720" d="M366.114,364.682a48.887,48.887,0,1,1-47.977-48.893A48.841,48.841,0,0,1,366.114,364.682Z" transform="translate(-267.201 -314.637)" fill="#e26f77"/>
    <path id="Path_721" data-name="Path 721" d="M306.029,372.1a32.911,32.911,0,0,1,.653-5.633,27.947,27.947,0,0,1,1.412-4.584c.262-.638.718-.9,1.232-.731a.972.972,0,0,1,.552,1.366,46.03,46.03,0,0,0-1.583,5.469,21.986,21.986,0,0,0-.317,5.1,1.16,1.16,0,0,0,.5.919,16.871,16.871,0,0,0,3.878,2.229c.432.178.471.019.51-.365a15.152,15.152,0,0,1,2.505-7.376c.4-.574,1.13-1.065,1.23-1.672.092-.561-.5-1.213-.715-1.85a6.54,6.54,0,0,1,3.522-7.975c.187-.086.422-.094.572-.334q-1.113-.862-2.221-1.723a.653.653,0,0,0-.722-.039,6.865,6.865,0,0,1-5.711-.015.671.671,0,0,0-.766.1q-.906.715-1.832,1.405c-.613.457-1.183.444-1.536-.016s-.261-.933.321-1.446c.448-.4.914-.774,1.4-1.125.3-.216.311-.35.062-.638a6.98,6.98,0,0,1-1.8-4.019,7.057,7.057,0,0,1,4.088-7.064,7.01,7.01,0,0,1,9.409,9.1,7.508,7.508,0,0,1-1.279,1.986c-.212.245-.174.345.06.538q1.191.975,2.334,2.006c.258.234.435.254.7.019.718-.64,1.434-1.284,2.191-1.877.4-.316.326-.507.036-.849a7.032,7.032,0,1,1,10.945-.311c-.608.813-.6.81.17,1.432a20.421,20.421,0,0,1,7.436,12.57c.157.837.263,1.683.418,2.689.278-.613.488-1.09.709-1.561A3.029,3.029,0,0,1,347.65,366a2.983,2.983,0,0,1,2.487,2.723,2.9,2.9,0,0,1-.294,1.554c-1.258,2.783-2.509,5.568-3.79,8.34A9.322,9.322,0,0,1,344.1,381.3c-1.746,1.733-3.477,3.481-5.225,5.21-.27.268-.447.474-.159.853a1.581,1.581,0,0,1,.212.987c0,2.416,0,4.833,0,7.249a1.782,1.782,0,0,1-1.943,1.964q-5.037.012-10.075,0a1.817,1.817,0,0,1-1.986-2c-.009-1.924-.011-3.849,0-5.773,0-.416-.074-.617-.556-.608-1.5.028-2.995.026-4.492,0-.448-.008-.527.173-.524.566q.023,2.791,0,5.581c-.008,1.238-.466,1.938-1.4,2.172a2.963,2.963,0,0,1-.7.062q-4.941,0-9.882,0a1.915,1.915,0,0,1-2.089-2.063c-.008-2.331,0-4.661,0-6.992a1.829,1.829,0,0,1,.23-1.112c.285-.385.16-.587-.141-.882-1.71-1.677-3.366-3.411-5.1-5.062a14.222,14.222,0,0,1-3.015-4.864c-.938-2.152-1.849-4.318-2.874-6.429a2.966,2.966,0,0,1,5.353-2.553c.306.606.553,1.242.9,2.026.15-1.043.263-1.929.407-2.81a21.44,21.44,0,0,1,1.666-5.366.879.879,0,0,1,1.2-.513.915.915,0,0,1,.5,1.274,24.21,24.21,0,0,0-1.633,5.642,21.966,21.966,0,0,0-.229,3.769c0,.248.045.444.356.363A6.366,6.366,0,0,1,306.029,372.1Z" transform="translate(-272.075 -319.498)" fill="#fefefe"/>
    <path id="Path_722" data-name="Path 722" d="M307.867,363.3a.921.921,0,0,1-.928-.93.948.948,0,1,1,1.895.038A.923.923,0,0,1,307.867,363.3Z" transform="translate(-274.505 -323.274)" fill="#fefdfd"/>
    <path id="Path_723" data-name="Path 723" d="M331.275,359.817c.763-.588,1.48-1.125,2.179-1.686a.708.708,0,0,1,.82-.094,6.834,6.834,0,0,0,5.651-.011.976.976,0,0,1,1.055.2,17.456,17.456,0,0,1,6.869,9.533,22.735,22.735,0,0,1,.955,6.758c0,.491-.1.684-.654.537a4.212,4.212,0,0,0-2.338.062c-.454.139-.631.044-.637-.491a27.105,27.105,0,0,0-1.961-9.54,1.171,1.171,0,0,0-.672-.808.9.9,0,0,0-1,.246,1.009,1.009,0,0,0-.135,1.139,28.743,28.743,0,0,1,1.382,4.591,19.085,19.085,0,0,1,.481,5.906,1.339,1.339,0,0,1-.546,1.018,18.136,18.136,0,0,1-3.7,2.144c-.636.287-.608-.083-.645-.488a16.078,16.078,0,0,0-1.4-5.36,12.815,12.815,0,0,0-2.184-3.222c-.183-.2-.293-.359-.11-.658a6.526,6.526,0,0,0-3.2-9.617A1.247,1.247,0,0,1,331.275,359.817Z" transform="translate(-279.11 -322.616)" fill="#e26f77"/>
    <path id="Path_724" data-name="Path 724" d="M332.988,385.455a17.452,17.452,0,0,0-1.059-3.158,13.848,13.848,0,0,0-1.372-2.309.99.99,0,0,0-1.407-.27.977.977,0,0,0-.125,1.375,13.379,13.379,0,0,1,2.372,6.41,35.224,35.224,0,0,1,.169,4.606c.006.324-.062.519-.433.563a.972.972,0,0,0-.677.334,1.625,1.625,0,0,1-1.54.544c-1.454-.022-2.907-.014-4.361,0a1.072,1.072,0,0,1-.965-.372,1.007,1.007,0,0,0-.574-.383c-.759-.092-.756-.571-.763-1.173a21.076,21.076,0,0,1,1.171-7.994,9.958,9.958,0,0,1,1.4-2.51.93.93,0,0,0,.078-1.186.909.909,0,0,0-1.018-.365,1.256,1.256,0,0,0-.713.611A13.581,13.581,0,0,0,321,384.991c-.039.165-.084.328-.129.5-1.223-.964-1.489-1.648-1.268-3.572a12.832,12.832,0,0,1,2.94-7.11c.235-.273.366-.359.708-.146a6.487,6.487,0,0,0,7.307.028c.346-.212.513-.165.771.135a12.878,12.878,0,0,1,2.894,6.928,3.4,3.4,0,0,0,.049.51C334.675,383.642,334,384.584,332.988,385.455Z" transform="translate(-276.888 -325.758)" fill="#e26f77"/>
    <path id="Path_725" data-name="Path 725" d="M312.158,392.53c-1.069,0-2.138-.01-3.207.006a1.329,1.329,0,0,1-1.034-.4c-2.033-2.047-4.08-4.082-6.117-6.125a7.538,7.538,0,0,1-1.544-2.189q-1.823-3.988-3.626-7.986a1.255,1.255,0,0,1,0-1.337,1.1,1.1,0,0,1,1.94.333c.622,1.405,1.253,2.809,1.806,4.241a14.232,14.232,0,0,0,3.632,5.055c1.013.981,1.994,2,3,2.988.6.592,1.126.659,1.56.224s.344-1-.21-1.572c-1.6-1.659-3.314-3.211-4.845-4.944-.406-.46-.255-.622.195-.8a2.336,2.336,0,0,1,2.364.31c.532.394,1.047.811,1.562,1.227a14.644,14.644,0,0,0,4.171,2.473c2.423.878,3.511,2.774,4.056,5.119a15.482,15.482,0,0,1,.148,2.873c.017.4-.128.519-.516.512C314.381,392.517,313.269,392.53,312.158,392.53Z" transform="translate(-272.518 -325.662)" fill="#e26f77"/>
    <path id="Path_726" data-name="Path 726" d="M340.606,392.529c-1.112,0-2.223,0-3.335,0-.25,0-.536.056-.554-.342a9.368,9.368,0,0,1,1.343-5.946,5.184,5.184,0,0,1,2.32-1.952,20.445,20.445,0,0,0,5.853-3.627,2.531,2.531,0,0,1,2.823-.631c.445.183.543.373.19.765-1.161,1.284-2.38,2.511-3.6,3.736-.512.514-1.043,1.014-1.516,1.563a.84.84,0,0,0,.056,1.262.855.855,0,0,0,1.269-.01c1.743-1.761,3.6-3.418,5.208-5.3,1.257-1.471,1.8-3.331,2.576-5.059.315-.7.6-1.416.91-2.117a1.1,1.1,0,1,1,1.99.87c-1.227,2.724-2.457,5.446-3.712,8.157a7.746,7.746,0,0,1-1.615,2.216q-2.976,2.962-5.935,5.943a1.5,1.5,0,0,1-1.19.484C342.658,392.511,341.631,392.53,340.606,392.529Z" transform="translate(-280.136 -325.661)" fill="#e26f77"/>
    <path id="Path_727" data-name="Path 727" d="M337.281,343.834A5.106,5.106,0,0,1,342.375,349a5.131,5.131,0,0,1-10.263-.063A5.133,5.133,0,0,1,337.281,343.834Z" transform="translate(-279.268 -319.946)" fill="#e26f77"/>
    <path id="Path_728" data-name="Path 728" d="M322.768,348.933a5.125,5.125,0,1,1-5.076-5.1A5.1,5.1,0,0,1,322.768,348.933Z" transform="translate(-275.56 -319.946)" fill="#e26f77"/>
    <path id="Path_729" data-name="Path 729" d="M310.239,402.885c0-1.026.032-2.053-.013-3.077-.025-.583.191-.726.739-.713,2.178.048,4.357.066,6.536.076.789,0,1.579-.034,2.367-.07.456-.02.649.142.644.629-.02,2.093-.017,4.188,0,6.282,0,.409-.114.561-.544.563q-4.551.012-9.1.07c-.464.006-.649-.131-.636-.619C310.259,404.98,310.239,403.932,310.239,402.885Z" transform="translate(-275.126 -330.403)" fill="#e26f77"/>
    <path id="Path_730" data-name="Path 730" d="M344.646,402.873c0,1.046-.014,2.093.007,3.138.008.4-.1.562-.537.563q-4.516.011-9.031.071c-.5.006-.67-.156-.665-.661.023-2.072.026-4.143,0-6.214-.007-.556.207-.684.715-.675,2.347.042,4.7.062,7.043.075.639,0,1.279-.036,1.917-.07.414-.022.567.152.559.568C344.634,400.737,344.646,401.806,344.646,402.873Z" transform="translate(-279.705 -330.403)" fill="#e26f77"/>
    <path id="Path_731" data-name="Path 731" d="M332.2,366.935a4.625,4.625,0,0,1-4.638,4.646,4.674,4.674,0,1,1,4.638-4.646Z" transform="translate(-277.526 -323.428)" fill="#e26f77"/>
    <path id="Path_732" data-name="Path 732" d="M319.726,404.475c-1.042,0-1.459-.3-1.414-1.025.041-.671.5-.919,1.632-.881.759.026,1.192.381,1.182.97C321.117,404.17,320.661,404.475,319.726,404.475Z" transform="translate(-276.657 -331.06)" fill="#fefdfd"/>
    <path id="Path_733" data-name="Path 733" d="M336.933,404.468c-.987.008-1.44-.358-1.347-1.078.082-.641.5-.84,1.692-.807.674.019,1.1.345,1.108.9a.913.913,0,0,1-.816.983A3.478,3.478,0,0,1,336.933,404.468Z" transform="translate(-279.924 -331.063)" fill="#fefdfd"/>
  </g>
</svg>
