<svg xmlns="http://www.w3.org/2000/svg" width="23.83" height="23.83" viewBox="0 0 23.83 23.83">
  <g id="_3Owmy0.tif" data-name="3Owmy0.tif" transform="translate(-39.357 -277.04)">
    <g id="Group_188" data-name="Group 188" transform="translate(39.357 277.04)">
      <path id="Path_697" data-name="Path 697" d="M59,300.87H43.546a.772.772,0,0,0-.13-.04,4.605,4.605,0,0,1-3.948-3.56c-.041-.18-.074-.361-.111-.542V283a.986.986,0,0,0,.044-.151,4.592,4.592,0,0,1,4.182-3.947c.413-.027.83,0,1.265,0,0-.261.014-.47,0-.676a1.035,1.035,0,0,1,.749-1.179h.372a1.056,1.056,0,0,1,.745,1.209c-.016.2,0,.4,0,.61h9.126c0-.211.014-.412,0-.61a1.057,1.057,0,0,1,.746-1.208h.372a1.037,1.037,0,0,1,.749,1.18c-.017.212,0,.426,0,.651.292,0,.547,0,.8,0a4.615,4.615,0,0,1,4.529,3.408c.064.236.107.479.16.718v13.73a.732.732,0,0,0-.041.129,4.59,4.59,0,0,1-3.516,3.883C59.421,300.789,59.209,300.827,59,300.87Zm2.328-14.631H41.218v.273q0,4.816,0,9.633a2.744,2.744,0,0,0,2.853,2.86q7.2,0,14.4,0a2.744,2.744,0,0,0,2.851-2.862q0-4.816,0-9.633Zm-3.63-5.482c0,.6,0,1.188,0,1.777a.929.929,0,1,1-1.858,0c-.006-.512,0-1.024,0-1.536,0-.082-.007-.164-.01-.244H46.709c0,.609.006,1.2,0,1.787a.929.929,0,1,1-1.857.009c-.007-.6,0-1.191,0-1.784-2.289-.318-3.928,1.065-3.6,3.582H61.3C61.6,281.89,60.09,280.471,57.7,280.757Z" transform="translate(-39.357 -277.04)" fill="#656565"/>
      <path id="Path_698" data-name="Path 698" d="M63.2,361.762c.266,0,.532-.005.8,0a.8.8,0,0,1,.011,1.592q-.807.017-1.615,0a.8.8,0,0,1,.009-1.592C62.668,361.757,62.934,361.762,63.2,361.762Z" transform="translate(-56.924 -344.146)" fill="#656565"/>
      <path id="Path_699" data-name="Path 699" d="M116.7,363.351c-.259,0-.519.005-.778,0a.8.8,0,1,1,0-1.594c.525-.006,1.05-.007,1.575,0a.8.8,0,0,1,0,1.593C117.233,363.357,116.967,363.351,116.7,363.351Z" transform="translate(-99.153 -344.139)" fill="#656565"/>
      <path id="Path_700" data-name="Path 700" d="M116.706,336.627c-.259,0-.519,0-.778,0a.8.8,0,1,1,.01-1.6q.768-.006,1.536,0a.8.8,0,1,1,.01,1.6C117.224,336.631,116.965,336.627,116.706,336.627Z" transform="translate(-99.153 -322.972)" fill="#656565"/>
      <path id="Path_701" data-name="Path 701" d="M63.2,335.035c.259,0,.519,0,.778,0a.8.8,0,1,1,0,1.595q-.788.011-1.575,0a.8.8,0,1,1,.015-1.594C62.684,335.031,62.943,335.035,63.2,335.035Z" transform="translate(-56.923 -322.976)" fill="#656565"/>
      <path id="Path_702" data-name="Path 702" d="M89.939,335.033c.259,0,.519,0,.778,0a.8.8,0,0,1,.016,1.592c-.538.011-1.077.01-1.615,0a.8.8,0,0,1,0-1.593C89.394,335.027,89.667,335.033,89.939,335.033Z" transform="translate(-78.014 -322.974)" fill="#656565"/>
      <path id="Path_703" data-name="Path 703" d="M89.921,363.354c-.252,0-.505,0-.758,0a.809.809,0,0,1-.827-.8.8.8,0,0,1,.818-.8q.768-.007,1.536,0a.8.8,0,1,1,.008,1.6C90.44,363.358,90.181,363.354,89.921,363.354Z" transform="translate(-78.014 -344.142)" fill="#656565"/>
    </g>
  </g>
</svg>
