<svg id="GESzIn.tif" xmlns="http://www.w3.org/2000/svg" width="100" height="99.974" viewBox="0 0 100 99.974">
  <g id="Group_241" data-name="Group 241">
    <path id="Path_705" data-name="Path 705" d="M241.365,606.247a49.987,49.987,0,1,1,49.987-49.275A49.993,49.993,0,0,1,241.365,606.247Z" transform="translate(-191.356 -506.273)"/>
    <path id="Path_706" data-name="Path 706" d="M243.659,509.717a48.849,48.849,0,1,1-48.837,49.423A48.89,48.89,0,0,1,243.659,509.717Z" transform="translate(-193.669 -508.573)" fill="#71beb4"/>
    <path id="Path_707" data-name="Path 707" d="M282.363,663.9c3.3,0,6.6-.014,9.9.006a3.444,3.444,0,0,1,3.219,2.45,3.494,3.494,0,0,1-3.2,4.635c-4.126.038-8.254.017-12.381.022a2.443,2.443,0,0,0-.661.054,1.02,1.02,0,0,0-.849.973.993.993,0,0,0,.786,1.023c.845.213,1.7.385,2.552.561q6.077,1.25,12.155,2.5a1.843,1.843,0,0,0,1.406-.245q6.611-4,13.237-7.98a3.524,3.524,0,0,1,1.014-.4,1.212,1.212,0,0,0,.359-.121.615.615,0,0,0,.211-.655c-.029-.214-.262-.088-.4-.105a4.123,4.123,0,0,0-3.12.842,26.862,26.862,0,0,1-2.318,1.435,2.321,2.321,0,0,1-.384.189.817.817,0,0,1-1.148-.349.86.86,0,0,1,.334-1.18,39.685,39.685,0,0,1,4.087-2.485,2.07,2.07,0,0,0,1.223-1.665c.049-.235,0-.329-.226-.345a4.078,4.078,0,0,0-2.794.525c-.941.667-1.938,1.234-2.924,1.822a2.032,2.032,0,0,1-.21.114.843.843,0,0,1-1.2-.3.868.868,0,0,1,.353-1.246c1.006-.649,2.054-1.231,3.039-1.91a4.527,4.527,0,0,1,3.056-.816c.615.05,1.238,0,1.856.011.8.012,1.161.451,1.019,1.257-.112.637-.234,1.274-.386,1.9-.069.285-.027.388.269.371s.571-.011.857,0c.7.023,1.005.351,1,1.062a5.965,5.965,0,0,1-.165,1.2c-.055.269,0,.412.3.38a.826.826,0,0,1,.1,0c1.631,0,1.709.513,1.41,1.949a11.607,11.607,0,0,1-5.023,7.352c-4.617,3.18-9.255,6.33-13.986,9.33a10.241,10.241,0,0,1-9.191.993c-2.9-1-5.776-2.054-8.647-3.128a1.2,1.2,0,0,0-1.536.327c-1.339,1.452-2.742,2.842-4.121,4.255a.829.829,0,0,1-1.177.131.91.91,0,0,1-.124-1.336,2.665,2.665,0,0,1,.195-.213c1.58-1.621,3.169-3.233,4.734-4.868a1.3,1.3,0,0,1,1.546-.359q4.774,1.72,9.56,3.407a8.871,8.871,0,0,0,8.232-.982q6.712-4.394,13.352-8.9a10.36,10.36,0,0,0,4.255-5.558c.173-.551.167-.533-.4-.573a6.338,6.338,0,0,0-3.813,1.271c-3.951,2.439-7.927,4.834-11.9,7.241a2.106,2.106,0,0,1-1.6.27c-5.057-1.056-10.12-2.081-15.175-3.143a2.758,2.758,0,0,1-2.275-2.325,2.812,2.812,0,0,1,2.549-3.311c1.126-.035,2.253-.013,3.38-.014q4.667,0,9.333,0a1.842,1.842,0,0,0,1.54-.614,1.738,1.738,0,0,0-1.228-2.9c-1.175-.011-2.349-.007-3.524-.007-5.19,0-10.381.015-15.571-.01a4.989,4.989,0,0,0-3.783,1.616q-4.527,4.668-9.087,9.3c-.078.08-.155.163-.236.241-.477.455-.961.5-1.352.123s-.384-.857.044-1.379c.072-.087.153-.164.232-.245q4.588-4.708,9.174-9.417a6.463,6.463,0,0,1,4.865-2.058c3.127.012,6.254,0,9.381,0Z" transform="translate(-236.111 -610.623)" fill="#fefefe"/>
    <path id="Path_708" data-name="Path 708" d="M323.849,587.28c-.339.452-.638.834-.919,1.228a3.5,3.5,0,0,1-2.57,1.566,26.156,26.156,0,0,1-3.819.337,9.789,9.789,0,0,1-9.018-5.641,16.529,16.529,0,0,1-1.569-6.029,19.21,19.21,0,0,1,.1-4.6c.15-.984.692-1.29,1.562-.926a45.519,45.519,0,0,0,8.861,2.516,14.477,14.477,0,0,1,3.063.673,8.673,8.673,0,0,1,4.718,5.04c.035.088.071.176.1.246a.117.117,0,0,0,.175-.065,8.413,8.413,0,0,1,4.408-3.651,17.44,17.44,0,0,1,5.077-1.43,7.416,7.416,0,0,1,2.13.063c.712.142.945.412.877,1.155-.1,1.079-.261,2.152-.388,3.229-.157,1.334-.334,2.666-.454,4a5.73,5.73,0,0,1-3.316,4.813,8.9,8.9,0,0,1-5.458.98c-1.791-.256-2.746-1.517-3.4-3.076C323.961,587.589,323.919,587.467,323.849,587.28Z" transform="translate(-268.501 -551.206)" fill="#fefefe"/>
    <path id="Path_709" data-name="Path 709" d="M328.808,653.209a7.475,7.475,0,0,1,5.59,2.733,3.036,3.036,0,0,1,.313.49.843.843,0,0,1-.7,1.19,1.135,1.135,0,0,1-.932-.425,5.709,5.709,0,0,0-8.865-.1c-.073.087-.145.176-.225.255a.9.9,0,0,1-1.268.122.877.877,0,0,1-.107-1.263,6.752,6.752,0,0,1,1.542-1.54A7.871,7.871,0,0,1,328.808,653.209Z" transform="translate(-279.476 -605.024)" fill="#fefefe"/>
    <path id="Path_710" data-name="Path 710" d="M358.779,629.2c0,1.412,0,2.823,0,4.235a1.122,1.122,0,0,1-.357.921.859.859,0,0,1-1.38-.494,4.225,4.225,0,0,1-.088-.916q-.01-3.724,0-7.448a5.635,5.635,0,0,1,.061-.773c.08-.57.441-.905.916-.87a.912.912,0,0,1,.84.964c.02.795.007,1.59.007,2.385Q358.779,628.2,358.779,629.2Z" transform="translate(-302.629 -585.329)" fill="#fefefe"/>
    <path id="Path_711" data-name="Path 711" d="M363.793,658.657a5.667,5.667,0,0,1,3.025,1.079,8.57,8.57,0,0,1,2.437,2.67,2.113,2.113,0,0,1,.156.3.881.881,0,0,1-.3,1.118.8.8,0,0,1-1.13-.152c-.431-.481-.811-1.007-1.214-1.513a4.516,4.516,0,0,0-3.295-1.727,1.9,1.9,0,0,1-.518-.108.843.843,0,0,1,.027-1.584A2.672,2.672,0,0,1,363.793,658.657Z" transform="translate(-306.337 -608.692)" fill="#fefefe"/>
    <path id="Path_712" data-name="Path 712" d="M378.19,676a3.592,3.592,0,0,1,3.33,3.431.982.982,0,0,1-.894,1.034.951.951,0,0,1-.913-.906,1.773,1.773,0,0,0-1.679-1.766c-.446-.091-.869-.2-.955-.742C376.976,676.4,377.415,675.989,378.19,676Z" transform="translate(-316.165 -620.341)" fill="#fefefe"/>
    <path id="Path_713" data-name="Path 713" d="M311.416,581.448c0-.341.023-.683-.006-1.022-.036-.433.084-.528.513-.385,1.842.615,3.682,1.237,5.577,1.68,1.154.269,2.328.389,3.5.545a6.526,6.526,0,0,1,5.5,7.053,5.52,5.52,0,0,1-1.4,2.889c-.2.241-.3.11-.443-.046q-1.593-1.772-3.192-3.538c-1.29-1.434-2.572-2.874-3.867-4.3a.935.935,0,0,0-1.369-.208c-.438.388-.434.881.032,1.4q3.1,3.489,6.207,6.973c.132.149.4.278.306.5-.079.187-.353.1-.538.12a9.611,9.611,0,0,1-6.631-1.279,8.66,8.66,0,0,1-3.5-5.151A18.273,18.273,0,0,1,311.416,581.448Z" transform="translate(-272.101 -555.841)" fill="#72beb4"/>
    <path id="Path_714" data-name="Path 714" d="M365.44,598.47a5.6,5.6,0,0,1,1.911-7.448,14.331,14.331,0,0,1,6.6-2.094c.154-.013.426-.131.369.246-.318,2.114-.533,4.236-.669,6.372a3.875,3.875,0,0,1-2.39,3.252,8.245,8.245,0,0,1-3.9.829c-.507-.006-.33-.243-.165-.474q1.646-2.32,3.293-4.639c.094-.132.192-.262.277-.4a.921.921,0,0,0-.14-1.34.932.932,0,0,0-1.346.34c-.3.4-.585.817-.877,1.226Z" transform="translate(-307.902 -561.829)" fill="#72beb4"/>
  </g>
</svg>
