<svg xmlns="http://www.w3.org/2000/svg" width="44.036" height="16.486" viewBox="0 0 44.036 16.486">
  <g id="vYsI5M.tif" transform="translate(-7.53 -485.731)">
    <g id="Group_242" data-name="Group 242" transform="translate(7.53 485.731)">
      <path id="Path_715" data-name="Path 715" d="M24.033,493.988a8.252,8.252,0,1,0-8.31,8.228A8.194,8.194,0,0,0,24.033,493.988Zm16.516,0a5.512,5.512,0,0,0-11.023,0,5.512,5.512,0,0,0,11.023,0Zm8.257,2.741A2.755,2.755,0,0,0,51.566,494a2.789,2.789,0,0,0-2.749-2.794,2.818,2.818,0,0,0-2.789,2.764A2.769,2.769,0,0,0,48.806,496.727Z" transform="translate(-7.53 -485.731)" fill="#626daf"/>
      <path id="Path_716" data-name="Path 716" d="M24.033,493.988a8.252,8.252,0,1,1-8.157-8.257A8.247,8.247,0,0,1,24.033,493.988Z" transform="translate(-7.53 -485.731)" fill="#626daf"/>
      <path id="Path_717" data-name="Path 717" d="M37.644,493.623a5.512,5.512,0,1,1-5.5-5.506A5.5,5.5,0,0,1,37.644,493.623Z" transform="translate(-4.626 -485.367)" fill="#626daf"/>
      <path id="Path_718" data-name="Path 718" d="M43.723,496a2.769,2.769,0,0,1-2.778-2.758,2.818,2.818,0,0,1,2.789-2.764,2.789,2.789,0,0,1,2.749,2.794A2.755,2.755,0,0,1,43.723,496Z" transform="translate(-2.447 -485.008)" fill="#626daf"/>
    </g>
  </g>
</svg>
