<svg id="G6RUts.tif" xmlns="http://www.w3.org/2000/svg" width="23.83" height="23.832" viewBox="0 0 23.83 23.832">
  <defs>
    <style>
      .cls-1 {
        fill: #656565;
      }
    </style>
  </defs>
  <g id="Group_189" data-name="Group 189">
    <path id="Path_704" data-name="Path 704" class="cls-1" d="M62.168,351.088h1.49c.406.054.813.094,1.216.163a11.974,11.974,0,0,1,9.773,9.7c.077.433.123.872.183,1.308v1.49c-.014.075-.032.15-.042.226-.056.414-.089.833-.169,1.243a11.954,11.954,0,0,1-13.3,9.59,11.452,11.452,0,0,1-6.725-3.3A11.636,11.636,0,0,1,51,363.142a11.381,11.381,0,0,1,2-6.733,11.745,11.745,0,0,1,7.877-5.139C61.309,351.192,61.74,351.148,62.168,351.088Zm-4.829,6.349a.823.823,0,0,0-.109-.017c-1.031,0-2.063,0-3.094.005a.327.327,0,0,0-.223.148,9.736,9.736,0,0,0-1.24,3.039c-.12.548-.192,1.107-.289,1.681h4.254A21.367,21.367,0,0,1,57.339,357.437Zm16.054,4.858c0-.057,0-.1,0-.146a10.239,10.239,0,0,0-1.505-4.615.33.33,0,0,0-.245-.11c-.845-.008-1.691-.005-2.535-.005h-.626a21.617,21.617,0,0,1,.709,4.876Zm-20.961,1.419c0,.063,0,.1,0,.14a10.218,10.218,0,0,0,1.5,4.616.324.324,0,0,0,.241.117c.992.008,1.985.006,2.977,0,.057,0,.113-.011.189-.019a21.328,21.328,0,0,1-.705-4.859Zm16.755,0a21.626,21.626,0,0,1-.7,4.875c1.071,0,2.1,0,3.133,0a.329.329,0,0,0,.325-.192,9.958,9.958,0,0,0,1.155-2.778c.148-.621.235-1.257.353-1.91ZM62.2,357.435a.554.554,0,0,0-.083-.015c-1.055,0-2.11,0-3.164-.006-.168,0-.186.093-.218.205a18.362,18.362,0,0,0-.61,3.262c-.046.467-.066.936-.1,1.414H62.2Zm-4.156,6.281a19.442,19.442,0,0,0,.708,4.741c.045.136.12.134.223.134H62.05a1.168,1.168,0,0,0,.146-.016V363.7H58.153A.991.991,0,0,0,58.048,363.717Zm9.73-1.419a19.369,19.369,0,0,0-.706-4.743c-.05-.154-.139-.136-.245-.136H63.8c-.059,0-.118.01-.173.014V362.3Zm.026,1.422H63.63v4.871c1.1,0,2.175,0,3.253,0,.158,0,.179-.088.2-.2.19-.94.4-1.877.558-2.823C67.741,364.969,67.752,364.347,67.8,363.72Zm-5.6-11.084c-.97.193-2.715,2.26-2.858,3.373H62.2Zm4.331,3.38c-.677-1.419-1.382-2.748-2.9-3.419v3.419Zm-4.336,17.4V370H59.3A6.153,6.153,0,0,0,62.2,373.414ZM66.527,370h-2.9v3.414A6.158,6.158,0,0,0,66.527,370ZM66.52,353.15a11.946,11.946,0,0,1,1.457,2.743c.048.127.126.131.232.131.79,0,1.58,0,2.37,0a1.641,1.641,0,0,0,.177-.023A10.28,10.28,0,0,0,66.52,353.15Zm-7.177-.008a9.854,9.854,0,0,0-4.241,2.881c.877,0,1.741,0,2.6-.005.047,0,.115-.07.136-.122A11.436,11.436,0,0,1,59.342,353.141Zm-4.27,16.846c.886,1.129,3.413,2.821,4.253,2.859a10.732,10.732,0,0,1-1.258-2.195c-.095-.219-.138-.521-.306-.63s-.464-.033-.7-.033C56.41,369.987,55.762,369.987,55.072,369.987Zm15.7,0c-.894,0-1.721.006-2.547,0a.254.254,0,0,0-.28.2,10.71,10.71,0,0,1-1.393,2.586,1.1,1.1,0,0,0-.065.127A10.667,10.667,0,0,0,70.775,369.987Z" transform="translate(-51 -351.088)"/>
  </g>
</svg>
